# xmcd
#
# Track frame offsets: 
#        183
#        18933
#        32183
#        43708
#        54658
#        68008
#        80920
#        91333
#        101683
#        111283
#        122520
#        135670
#        146658
#        160683
#        173070
#        185033
#        195733
#        211183
#        223533
#        231570
#
# Disc length: 3321 seconds
#
# Revision: 0
# Processed by: cddbd v1.5.2PL0 Copyright (c) Steve Scherf et al.
# Submitted via: ExactAudioCopy v1.0b2
#
DISCID=230cf714
DTITLE=Sampler - World Of Country Music
DYEAR=1991
DGENRE=Country
TTITLE0=Kris Kristofferson - Me And Bobby McGee
TTITLE1=Lynn Anderson - Rose Garden (I Never Promised You A)
TTITLE2=Billy Jo Spears - The Happiest Girl In The Whole
TTITLE3=Patsy Cline - I Cried All The Way To the Altar
TTITLE4=Dolly Parton - Everything Is Beautiful
TTITLE5=Kenny Rogers - Ruby
TTITLE6=Freddy Fender - Before The Next Teardrop Falls
TTITLE7=Kris Kristofferson - Help Me Make It Through The Night
TTITLE8=Lynn Anderson - Snowbird
TTITLE9=Patsy Cline - Just Aut Of Reach
TTITLE10=Dolly Parton - Daddy Won't Be Here Anymore
TTITLE11=George Jones - Tender Years
TTITLE12=Billie Jo Spears - Mr Walker_It's All Over
TTITLE13=Kenny Rogers - Reuben James
TTITLE14=Don Williams - On Here Way To Be A Women
TTITLE15=Johnny Cash - Could_Could Heart
TTITLE16=Kris Kristofferson - For The Good Times 
TTITLE17=Lynn Anderson - Stand By Your Man
TTITLE18=Freddy Fender - Wasted Days And Wasted Night
TTITLE19=Kenny Rogers - Something's Burning
EXTD=
EXTT0=
EXTT1=
EXTT2=
EXTT3=
EXTT4=
EXTT5=
EXTT6=
EXTT7=
EXTT8=
EXTT9=
EXTT10=
EXTT11=
EXTT12=
EXTT13=
EXTT14=
EXTT15=
EXTT16=
EXTT17=
EXTT18=
EXTT19=
PLAYORDER=
